<svg version="1.0" viewBox="40 50 260 300" xmlns="http://www.w3.org/2000/svg">
  <path fill="#313fff" d="M77.6 72.4c-7.6 3.2-12.2 6.9-16.8 13.7-7 10.1-6.8 6.8-6.8 110 0 58.5.4 94.6 1 98 2.2 11.6 9.6 21.1 20.5 26.5 5.4 2.6 7 2.9 16 2.9 14 0 18.3-2.2 32.4-16.7 5.8-6 11.2-12.1 12-13.5.8-1.6 1.1-4.4.9-7.5-.8-8.3-8.3-13.8-16.6-12.3-3 .5-5.6 2.6-14.2 11.6C96.3 295 95.1 296 91.8 296c-2.5 0-4.6-.8-6.5-2.4l-2.8-2.4V102.8l2.8-2.4c1.9-1.6 4-2.4 6.5-2.4 3.5 0 6 2.4 60.2 56.4 51 51 56.9 56.5 60.5 57.2 5.5 1 11.4-1.2 14.2-5.5 2.7-4 3.1-10.7.9-14.9-.8-1.5-26.8-28-57.8-58.8-64.1-64-61.1-61.6-76.8-62.1-8.3-.3-10.2-.1-15.4 2.1z" />
  <path fill="#313fff" d="M234.4 73.8c-6.9 2.4-11.7 6.1-22.1 17.2-10.5 11.1-11.3 12.4-11.3 18.4 0 8.2 8.3 14.7 16.8 13.1 3-.5 5.7-2.7 14.2-11.6 9.5-9.8 10.9-10.9 14-10.9 4.3 0 7.3 2 8.9 5.7.8 2.1 1.1 27.1.9 95.1l-.3 92.4-2.8 2.4c-1.9 1.6-4 2.4-6.5 2.4-3.5 0-6.1-2.5-60.2-56.4-50.3-50.3-56.9-56.5-60.3-57.2-7.9-1.4-14.5 2.7-16.6 10.2-2.2 7.8-3.1 6.7 57.7 67.6 65.9 66 62.5 63.3 79.2 63.3 9.9 0 10.9-.2 17.2-3.3 10.6-5.2 17.6-14.4 19.8-26.1 1.3-7.1 1.4-186.9 0-193.9-2.2-11.6-9.9-21.6-20.7-26.8-7.6-3.6-20.2-4.4-27.9-1.6z" />
</svg>
